# xmcd
#
# Track frame offsets: 
#        150
#        15465
#        33295
#        47216
#        65254
#        76984
#        89105
#        106654
#        121146
#        138768
#        152321
#        167952
#        183149
#        196992
#        215619
#        230431
#
# Disc length: 3258 seconds
#
# Revision: 0
# Processed by: cddbd v1.5.2PL0 Copyright (c) Steve Scherf et al.
# Submitted via: ExactAudioCopy v1.0b1
#
DISCID=c50cb810
DTITLE=PK and Dansefolket - Full Truck!
DYEAR=2011
DGENRE=Danceband
TTITLE0=Six Days On The Road
TTITLE1=La Det Rulle
TTITLE2=What Am I Living For
TTITLE3=Stopp Igjen
TTITLE4=Truck Driving Man
TTITLE5=40 Tonn På Vei
TTITLE6=Takk Gud For At Dere Fins
TTITLE7=Dansefolket
TTITLE8=A Couple More Years
TTITLE9=Ta Meg Med
TTITLE10=Boots and Blåe Jeans
TTITLE11=No Vende Eg Heim
TTITLE12=Oh, Lonesome Me
TTITLE13=Mens Du Ligg Og Drøyme
TTITLE14=Heng Deg På
TTITLE15=500 Mil E Langt Å Gå
EXTD=
EXTT0=
EXTT1=
EXTT2=
EXTT3=
EXTT4=
EXTT5=
EXTT6=
EXTT7=
EXTT8=
EXTT9=
EXTT10=
EXTT11=
EXTT12=
EXTT13=
EXTT14=
EXTT15=
PLAYORDER=
